# xmcd
#
# Track frame offsets: 
#        150
#        11282
#        27597
#        43588
#        59542
#        73062
#        85918
#        97753
#        109648
#        121067
#        137253
#        155048
#        164440
#
# Disc length: 2281 seconds
#
# Revision: 0
# Processed by: cddbd v1.5.2PL0 Copyright (c) Steve Scherf et al.
# Submitted via: ExactAudioCopy v0.99pb4
#
DISCID=a008e70d
DTITLE=Gelnn Canyon - Bright Indiana
DYEAR=2002
DGENRE=Country`
TTITLE0=Candy
TTITLE1=Our Love Is Still Alive
TTITLE2=I've Been There And Back
TTITLE3=Every Thing I Didn't Do He's Done
TTITLE4=Too Much Of You Still On My Mind
TTITLE5=Somewhere There's You
TTITLE6=Silent As Stone
TTITLE7=The Coast Is Clear
TTITLE8=Country Music Hall Of Fame
TTITLE9=I fell Her Touching Me
TTITLE10=Bright Indiana
TTITLE11=Puttin' Jesus In His Place
TTITLE12=Shopping Cart
EXTD=
EXTT0=
EXTT1=
EXTT2=
EXTT3=
EXTT4=
EXTT5=
EXTT6=
EXTT7=
EXTT8=
EXTT9=
EXTT10=
EXTT11=
EXTT12=
PLAYORDER=
